<svg xmlns="http://www.w3.org/2000/svg" viewBox="0 0 49.25 49.25"><defs><style>.cls-1{fill:#fff;}</style></defs><title>behance-icon</title><g id="Layer_2" data-name="Layer 2"><g id="Layer_1-2" data-name="Layer 1"><path class="cls-1" d="M34.31,22.16a3.67,3.67,0,0,0-3.62,3.17h6.75A3.06,3.06,0,0,0,34.31,22.16Z"/><path class="cls-1" d="M19,25.32H13v5.49h5.68c.85,0,2.47-.27,2.47-2.67C21.16,25.3,19,25.32,19,25.32Z"/><path class="cls-1" d="M24.63,0A24.62,24.62,0,1,0,49.25,24.62,24.62,24.62,0,0,0,24.63,0Zm5.18,15.13h8.48v2.53H29.81ZM25.52,28.4c0,6.27-6.52,6.06-6.52,6.06H8.31V13.92H19c3.25,0,5.81,1.79,5.81,5.47a3.57,3.57,0,0,1-3.14,3.91C25.81,23.3,25.52,28.4,25.52,28.4Zm15.86-.34H30.73a3.34,3.34,0,0,0,3.62,3.58c3.41,0,3.3-2.21,3.3-2.21h3.62c0,5.87-7,5.47-7,5.47-8.44,0-7.89-7.85-7.89-7.85s0-7.89,7.89-7.89C42.55,19.15,41.38,28.07,41.38,28.07Z"/><path class="cls-1" d="M20.45,19.71c0-2.14-1.45-2.14-1.45-2.14H13v4.58h5.61C19.6,22.16,20.45,21.84,20.45,19.71Z"/></g></g></svg>