<svg xmlns="http://www.w3.org/2000/svg" viewBox="0 0 49.26 48.04"><defs><style>.cls-1{fill:#fff;}</style></defs><title>github-icon-white</title><g id="Layer_2" data-name="Layer 2"><g id="Layer_1-2" data-name="Layer 1"><path class="cls-1" d="M24.63,0a24.63,24.63,0,0,0-7.79,48c1.23.23,1.68-.53,1.68-1.18s0-2.53,0-4.59c-6.85,1.49-8.3-2.91-8.3-2.91-1.12-2.85-2.73-3.6-2.73-3.6-2.23-1.53.17-1.5.17-1.5a5.18,5.18,0,0,1,3.78,2.54c2.2,3.77,5.76,2.68,7.17,2a5.25,5.25,0,0,1,1.56-3.29c-5.47-.62-11.22-2.73-11.22-12.17a9.53,9.53,0,0,1,2.54-6.61,8.85,8.85,0,0,1,.24-6.52s2.07-.66,6.77,2.53a23.36,23.36,0,0,1,12.34,0c4.7-3.19,6.77-2.53,6.77-2.53a8.84,8.84,0,0,1,.24,6.52,9.51,9.51,0,0,1,2.53,6.61c0,9.46-5.76,11.54-11.25,12.15a5.89,5.89,0,0,1,1.67,4.56c0,3.3,0,5.95,0,6.76,0,.66.44,1.42,1.69,1.18a24.63,24.63,0,0,0-7.8-48Z"/><path class="cls-1" d="M9.33,35.36c-.05.12-.25.16-.42.08s-.28-.25-.22-.37.25-.16.42-.08.28.25.22.37Z"/><path class="cls-1" d="M10.33,36.48c-.12.11-.35.06-.5-.11a.38.38,0,0,1-.07-.51c.12-.11.34-.06.51.11s.19.4.07.51Z"/><path class="cls-1" d="M11.3,37.89c-.15.11-.4,0-.55-.21s-.15-.48,0-.59.4,0,.55.21.15.49,0,.59Z"/><path class="cls-1" d="M12.63,39.26c-.14.15-.42.11-.63-.09a.47.47,0,0,1-.14-.63c.14-.15.43-.11.64.09s.28.48.14.63Z"/><path class="cls-1" d="M14.46,40.06c-.06.19-.34.28-.62.2s-.46-.31-.4-.51.34-.29.62-.2.46.31.4.5Z"/><path class="cls-1" d="M16.48,40.21c0,.2-.23.37-.52.38s-.53-.16-.54-.36.23-.37.53-.38.53.16.53.36Z"/><path class="cls-1" d="M18.35,39.89c0,.2-.17.4-.46.46s-.55-.07-.59-.27.17-.41.46-.46.55.07.59.27Z"/></g></g></svg>