<?xml version="1.0" encoding="utf-8"?>
<!-- Generator: Adobe Illustrator 21.0.2, SVG Export Plug-In . SVG Version: 6.00 Build 0)  -->
<svg version="1.1" id="Layer_1" xmlns="http://www.w3.org/2000/svg" xmlns:xlink="http://www.w3.org/1999/xlink" x="0px" y="0px"
	 viewBox="0 0 56.7 56.7" style="enable-background:new 0 0 56.7 56.7;" xml:space="preserve">
<style type="text/css">
	.st0{fill:#FF00CC;}
</style>
<g>
	<circle class="st0" cx="28.1" cy="30" r="4.4"/>
	<path class="st0" d="M33.6,19.2h-11c-1.6,0-3,0.5-3.9,1.4s-1.4,2.3-1.4,3.9v11c0,1.6,0.5,3,1.5,4c1,0.9,2.3,1.4,3.9,1.4h10.9
		c1.6,0,3-0.5,3.9-1.4c1-0.9,1.5-2.3,1.5-3.9v-11c0-1.6-0.5-2.9-1.4-3.9C36.6,19.7,35.3,19.2,33.6,19.2z M28.1,36.8
		c-3.8,0-6.8-3.1-6.8-6.8c0-3.8,3.1-6.8,6.8-6.8s6.9,3,6.9,6.8S31.9,36.8,28.1,36.8z M35.2,24.5c-0.9,0-1.6-0.7-1.6-1.6
		s0.7-1.6,1.6-1.6s1.6,0.7,1.6,1.6S36.1,24.5,35.2,24.5z"/>
	<path class="st0" d="M28.3,5.2c-13.6,0-24.6,11-24.6,24.6s11,24.6,24.6,24.6s24.6-11,24.6-24.6C53,16.2,41.9,5.2,28.3,5.2z
		 M41.4,35.6c0,2.3-0.8,4.3-2.2,5.7s-3.4,2.1-5.6,2.1H22.7c-2.2,0-4.2-0.7-5.6-2.1c-1.5-1.4-2.2-3.4-2.2-5.7v-11
		c0-4.6,3.1-7.8,7.8-7.8h11c2.3,0,4.2,0.8,5.6,2.2c1.4,1.4,2.1,3.3,2.1,5.6C41.4,24.6,41.4,35.6,41.4,35.6z"/>
</g>
</svg>
