<svg xmlns="http://www.w3.org/2000/svg" viewBox="0 0 49.25 49.25"><defs><style>.cls-1{fill:#fff;}</style></defs><title>linkedin-icon-white</title><g id="Layer_2" data-name="Layer 2"><g id="Layer_1-2" data-name="Layer 1"><path class="cls-1" d="M24.63,0A24.62,24.62,0,1,0,49.25,24.62,24.63,24.63,0,0,0,24.63,0ZM38.34,36.59a2,2,0,0,1-2,2H12.89a2,2,0,0,1-2-2V12.9a2,2,0,0,1,2-2H36.31a2,2,0,0,1,2,2V36.59Z"/><path class="cls-1" d="M29.38,21.29a4.12,4.12,0,0,0-3.74,2.06v0h0l0,0V21.58H21.49c.06,1.17,0,12.48,0,12.48h4.15v-7a2.83,2.83,0,0,1,.14-1,2.28,2.28,0,0,1,2.13-1.52c1.5,0,2.1,1.15,2.1,2.82v6.68h4.15V26.91C34.16,23.07,32.11,21.29,29.38,21.29Z"/><path class="cls-1" d="M17.14,15.56a2.16,2.16,0,1,0-.06,4.32h0a2.17,2.17,0,1,0,0-4.32Z"/><rect class="cls-1" x="15.04" y="21.58" width="4.15" height="12.48"/></g></g></svg>