<svg id="Layer_1" data-name="Layer 1" xmlns="http://www.w3.org/2000/svg" viewBox="0 0 1024 768"><defs><style>.cls-1{fill:none;}.cls-2{fill:#f0c;}</style></defs><title>touchstone-logo</title><path class="cls-1" d="M172.21,300a3.74,3.74,0,0,0,.83.31v0q-1.07-.57-2.12-1.18Z"/><path class="cls-2" d="M526.53,50c-136.32.1-261.44,87.56-307.74,215.92C172.23,395,212.57,544,318.75,631s260.65,97.68,378.09,26.6c117.76-71.28,179.19-212.25,151.06-347C820.44,178.95,710.33,74.66,577.54,53.88A323.24,323.24,0,0,0,526.53,50ZM758.87,520.47V235C813.06,319.29,813.4,435.9,758.87,520.47ZM465.43,112.69c5.67-1.3,11.4-2.45,17.21-3.4,6.5-1.3,13.06-2.62,19.79-4V650l-55.6-10.77c0-165.66,0-355.67-.15-521.53.71-.22,1.4-.48,2.11-.69C452.37,113.66,460.8,113.58,465.43,112.69Zm-171,122.94V519.46C243.47,441.54,238.84,323.44,294.46,235.63ZM388.9,612a271,271,0,0,1-40.62-29.16l-2.14-1.55a5.6,5.6,0,0,1-1.33-1.55c-.52-.47-1-1-1.53-1.43-.12-125.5-.12-274.67,0-401.35.56-.52,1.11-1.05,1.67-1.57a5.48,5.48,0,0,1,.76-.93c15.59-13.94,32.28-26.39,50.79-36.26a8.72,8.72,0,0,1,2-.49l.34-.17s0,.1,0,.1V617.76c-1.55-.56-2.9-.75-3.89-1.46Zm210.75,28.18c-16.08,3.17-32.13,6.57-48.81,10v-545l16.63,3.45A268.25,268.25,0,0,1,597.39,115c1.91.41,3.84.81,5.74,1.23a2.29,2.29,0,0,1,1.07.7c.72.21,1.42.47,2.13.7,0,167.91,0,351.91.15,519.81-.71.22-1.41.48-2.12.69A9.31,9.31,0,0,1,599.65,640.21Zm107.84-58.77A255.22,255.22,0,0,1,657,617.1a15.49,15.49,0,0,1-2.7.77V137.22A78.91,78.91,0,0,1,665,143.55,275.29,275.29,0,0,1,703,170.6c1.7,1.44,3.39,2.89,5.06,4.38.66.59,1.3,1.21,2,1.81.15,124.41.15,275.45.06,401.74-.46.42-.91.86-1.37,1.27A6.15,6.15,0,0,1,707.48,581.44Z"/></svg>