<svg xmlns="http://www.w3.org/2000/svg" viewBox="0 0 655.01 654.46"><defs><style>.cls-1{fill:#fff;}</style></defs><title>touchstone-logo-white</title><g id="Layer_2" data-name="Layer 2"><g id="Layer_1-2" data-name="Layer 1"><path class="cls-1" d="M326.88,0C190.55.1,65.43,87.56,19.13,215.92-27.42,345,12.91,494,119.1,581s260.65,97.68,378.09,26.6c117.76-71.28,179.19-212.25,151.06-347C620.78,128.95,510.67,24.66,377.88,3.88A323.24,323.24,0,0,0,326.88,0ZM559.21,470.47V185C613.4,269.29,613.74,385.9,559.21,470.47ZM265.77,62.69c5.67-1.3,11.4-2.45,17.21-3.4,6.5-1.3,13.06-2.62,19.79-4V600l-55.6-10.77c0-165.66,0-355.67-.15-521.53.71-.22,1.4-.48,2.11-.69C252.72,63.66,261.14,63.58,265.77,62.69ZM94.8,185.63V469.46C43.82,391.54,39.19,273.44,94.8,185.63ZM189.24,562a271,271,0,0,1-40.62-29.16l-2.14-1.55a5.6,5.6,0,0,1-1.33-1.55c-.52-.47-1-1-1.53-1.43-.12-125.5-.12-274.67,0-401.35.56-.52,1.11-1.05,1.67-1.57a5.48,5.48,0,0,1,.76-.93c15.59-13.94,32.28-26.39,50.79-36.26a8.72,8.72,0,0,1,2-.49l.34-.17s0,.1,0,.1V567.76c-1.55-.56-2.9-.75-3.89-1.46ZM400,590.21c-16.08,3.17-32.13,6.57-48.81,10v-545l16.63,3.45A268.25,268.25,0,0,1,397.74,65c1.91.41,3.84.81,5.74,1.23a2.29,2.29,0,0,1,1.07.7c.72.21,1.42.47,2.13.7,0,167.91,0,351.91.15,519.81-.71.22-1.41.48-2.12.69A9.31,9.31,0,0,1,400,590.21Zm107.84-58.77a255.22,255.22,0,0,1-50.46,35.66,15.49,15.49,0,0,1-2.7.77V87.22a78.91,78.91,0,0,1,10.72,6.33,275.29,275.29,0,0,1,37.94,27.05c1.7,1.44,3.39,2.89,5.06,4.38.66.59,1.3,1.21,2,1.81.15,124.41.15,275.45.06,401.74-.46.42-.91.86-1.37,1.27A6.15,6.15,0,0,1,507.83,531.44Z"/></g></g></svg>